<svg width="53" height="50" viewBox="0 0 53 50" fill="none" xmlns="http://www.w3.org/2000/svg">
<g clip-path="url(#clip0_41_200)">
<path d="M12.129 0.461517C5.43034 0.461517 0 5.53524 0 11.794C0 18.0527 5.43039 23.1264 12.129 23.1264C18.8277 23.1264 24.258 18.0526 24.258 11.7939C24.258 5.53519 18.8276 0.461517 12.129 0.461517Z" fill="#EEBA0B"/>
<path fill-rule="evenodd" clip-rule="evenodd" d="M28.3008 11.7939C28.3008 5.53519 33.7311 0.461517 40.4298 0.461517C47.1284 0.461517 52.5588 5.53519 52.5588 11.7939V23.0136C52.5588 23.0759 52.5048 23.1263 52.4379 23.1263H40.4298C33.7311 23.1263 28.3008 18.0526 28.3008 11.7939Z" fill="#49158C" fill-opacity="0.976471"/>
<path d="M0 38.2363C0 31.9776 5.43034 26.9038 12.129 26.9038C18.8277 26.9038 24.258 31.9776 24.258 38.2363V49.4558C24.258 49.5183 24.2039 49.5688 24.1373 49.5688H12.129C5.43034 49.5688 0 44.495 0 38.2363Z" fill="#7F6AD2"/>
<path d="M28.3008 38.2363C28.3008 31.9776 33.7311 26.9038 40.4298 26.9038C47.1284 26.9038 52.5588 31.9776 52.5588 38.2363V49.4558C52.5588 49.5183 52.5048 49.5688 52.4379 49.5688H28.4214C28.3548 49.5688 28.3008 49.5183 28.3008 49.4558V38.2363Z" fill="#F9C74F"/>
</g>
<defs>
<clipPath id="clip0_41_200">
<rect width="53" height="50" fill="white"/>
</clipPath>
</defs>
</svg>
